<?xml version="1.0" encoding="utf-8"?>
<!-- Generator: Adobe Illustrator 19.2.0, SVG Export Plug-In . SVG Version: 6.00 Build 0)  -->
<svg version="1.1" id="Layer_1" xmlns="http://www.w3.org/2000/svg" xmlns:xlink="http://www.w3.org/1999/xlink" x="0px" y="0px"
	 viewBox="0 0 960 960" style="enable-background:new 0 0 960 960;" xml:space="preserve">
<style type="text/css">
	.st0{fill:#FFFFFF;}
	.st1{fill:#00A99D;}
	.st2{fill:none;stroke:#BDCCD4;stroke-width:9.1657;stroke-miterlimit:10;}
	.st3{fill:#E6E6E6;}
	.st4{fill:#0071BC;}
</style>
<g>
	<g>
		<path class="st0" d="M547.5,741.1L412.6,523.4V399.7c14.9,0,26.9-12.1,26.9-27s-12-27-26.9-27l0,0h-0.1H293.4h-2.2
			c-14.9,0-27,12.1-27,27s12.1,27,27,27h2.2v123.7L158.5,741.1c-17.6,33,4.3,74.2,41.7,76.2c1.2,0.1,2.4,0.1,3.6,0.1h298.4
			c1.2,0,2.4,0,3.6-0.1C543.1,815.3,565,774.1,547.5,741.1z"/>
		<path class="st1" d="M495.7,726.6l-46.9-69.3c-11.9,9.5-23.2,15.7-46.4,20.3c-42.3,8.3-61.1-13.9-90.4-39.8
			c-14.1-12.5-27.1-14.4-43-11.5l-58.8,100.4c-12.9,24.2,3.2,54.4,30.6,55.9c0.9,0,1.8,0.1,2.7,0.1h218.9c0.9,0,1.8,0,2.7-0.1
			C492.5,781.1,508.6,750.8,495.7,726.6z"/>
		<circle class="st1" cx="404.8" cy="614.3" r="14.2"/>
		
			<ellipse transform="matrix(0.7071 -0.7071 0.7071 0.7071 -284.9264 448.3754)" class="st1" cx="398.8" cy="568.1" rx="9.7" ry="9.7"/>
		<circle class="st1" cx="367.4" cy="594.7" r="12.1"/>
		<line class="st2" x1="309.8" y1="437.5" x2="354.2" y2="437.5"/>
		<line class="st2" x1="309.8" y1="464.7" x2="354.2" y2="464.7"/>
		<line class="st2" x1="309.8" y1="491.9" x2="354.2" y2="491.9"/>
		<line class="st2" x1="309.8" y1="519.1" x2="354.2" y2="519.1"/>
		<circle class="st0" cx="379.5" cy="732.1" r="11"/>
		
			<ellipse transform="matrix(0.1992 -0.98 0.98 0.1992 -356.8725 990.6188)" class="st0" cx="427.7" cy="713.7" rx="15.1" ry="15.1"/>
		<circle class="st0" cx="444.1" cy="745.9" r="9.5"/>
		<rect x="293.4" y="399.7" class="st3" width="119.2" height="19.1"/>
	</g>
	<g>
		<path class="st0" d="M718.2,428.2V303.3c14.9,0,26.9-12.1,26.9-27s-12-27-26.9-27l0,0h-0.1H599h-2.2c-14.9,0-27,12.1-27,27
			s12.1,27,27,27h2.2v123.9c-53.9,22.8-91.7,76.2-91.7,138.4c0,83,67.2,150.2,150.2,150.2s150.2-67.2,150.2-150.2
			C807.7,504.3,770.9,451.6,718.2,428.2z"/>
		<line class="st2" x1="614.2" y1="340.1" x2="658.7" y2="340.1"/>
		<line class="st2" x1="614.2" y1="367.3" x2="658.7" y2="367.3"/>
		<line class="st2" x1="614.2" y1="394.5" x2="658.7" y2="394.5"/>
		<line class="st2" x1="614.2" y1="421.7" x2="658.7" y2="421.7"/>
		<rect x="597.9" y="302.3" class="st3" width="119.2" height="19.1"/>
		<path class="st4" d="M750.3,504.5c-13.6,11.5-42,32.6-67.9,33.4c-35.5,1.1-41.8-23.9-77.3-23.3c-20.8,0.3-41.5,12.3-55.1,22.2
			c-2.5,9.2-3.8,18.8-3.8,28.8c0,61.4,49.8,111.2,111.2,111.2S768.6,627,768.6,565.6C768.6,543,761.9,522,750.3,504.5z"/>
		<circle class="st4" cx="629.9" cy="490.7" r="6.6"/>
		<circle class="st4" cx="672.6" cy="449.4" r="13.9"/>
		<circle class="st4" cx="675.2" cy="493.3" r="11.2"/>
		<circle class="st0" cx="652.3" cy="566.8" r="11.6"/>
		<circle class="st0" cx="699.3" cy="533.5" r="9.6"/>
		<circle class="st0" cx="712.9" cy="570.7" r="13.6"/>
	</g>
	<circle class="st0" cx="385.4" cy="295" r="17.3"/>
	<circle class="st0" cx="444.8" cy="236.1" r="12.3"/>
	<circle class="st0" cx="638.5" cy="194.4" r="9.8"/>
	<circle class="st0" cx="696.7" cy="200.8" r="16.2"/>
	<circle class="st0" cx="675.2" cy="153.8" r="11.2"/>
</g>
</svg>
